<svg width="178" height="154" viewBox="0 0 178 154" fill="none" xmlns="http://www.w3.org/2000/svg">
<g clip-path="url(#clip0_18_309)">
<path d="M43.5827 152.629C43.5827 152.629 60.0833 143.74 56.0675 126.838C56.0675 126.838 40.5373 133.57 43.5808 152.626L43.5827 152.629Z" fill="white"/>
<path d="M12.8916 90.1449C12.8916 90.1449 31.6388 90.646 36.5386 73.9962C36.5386 73.9962 19.7059 72.1098 12.8916 90.1449Z" fill="white"/>
<path d="M39.7838 127.718C39.7838 127.718 53.9073 129.312 61.5851 115.855C61.5851 115.855 46.97 112.783 39.7838 127.718Z" fill="white"/>
<path d="M22.7553 66.1793C22.7553 66.1793 33.8498 75.0871 47.5342 67.841C47.5342 67.841 36.8127 57.4213 22.7553 66.1793Z" fill="white"/>
<path d="M39.9033 58.6374C39.9033 58.6374 49.7282 68.9299 64.25 63.5547C64.25 63.5547 54.9937 51.813 39.9033 58.6374Z" fill="white"/>
<path d="M57.1202 50.8319C57.1202 50.8319 64.546 62.971 79.8821 60.7992C79.8821 60.7992 73.3181 47.3652 57.1202 50.8319Z" fill="white"/>
<path d="M75.3479 48.8651C75.3479 48.8651 82.0122 61.4384 97.4543 60.2222C97.4543 60.2222 91.7317 46.4089 75.3479 48.8651Z" fill="white"/>
<path d="M94.9807 47.0038C94.9807 47.0038 99.7591 60.4102 115.217 61.441C115.217 61.441 111.55 46.95 94.9807 47.0038Z" fill="white"/>
<path d="M60.8516 140.425C60.8516 140.425 70.9549 130.436 65.32 115.984C65.32 115.984 53.7596 125.423 60.8516 140.425Z" fill="white"/>
<path d="M34.1558 88.5535C34.1558 88.5535 48.0412 85.5499 51.0139 70.3358C51.0139 70.3358 36.1927 72.0968 34.1558 88.5535Z" fill="white"/>
<path d="M49.8471 83.1976C49.8471 83.1976 63.9617 81.5768 68.4204 66.7323C68.4204 66.7323 53.4933 67.0238 49.8471 83.1976Z" fill="white"/>
<path d="M66.6647 80.2593C66.6647 80.2593 80.7793 78.6386 85.238 63.7941C85.238 63.7941 70.311 64.0856 66.6647 80.2593Z" fill="white"/>
<path d="M81.724 77.8892C81.724 77.8892 95.9349 78.0862 102.248 63.9345C102.248 63.9345 87.4036 62.3142 81.724 77.8892Z" fill="white"/>
<path d="M97.2882 79.7769C97.2882 79.7769 111.499 79.9739 117.812 65.8222C117.812 65.8222 102.968 64.2019 97.2882 79.7769Z" fill="white"/>
<path d="M71.6687 127.701C71.6687 127.701 82.3639 118.352 77.6213 103.584C77.6213 103.584 65.5068 112.297 71.6687 127.701Z" fill="white"/>
<path d="M83.2925 116.961C83.2925 116.961 94.7134 108.518 91.1903 93.4099C91.1903 93.4099 78.4055 101.103 83.2925 116.961Z" fill="white"/>
<path d="M95.0421 107.482C95.0421 107.482 107.437 100.545 105.838 85.1168C105.838 85.1168 92.1844 91.1368 95.0421 107.482Z" fill="white"/>
<path d="M108.091 100.702C108.091 100.702 120.486 93.7648 118.886 78.3365C118.886 78.3365 105.233 84.3565 108.091 100.702Z" fill="white"/>
<path d="M50.7594 112.096C50.7594 112.096 64.5935 115.37 73.8269 102.935C73.8269 102.935 59.6819 98.1341 50.7594 112.096Z" fill="white"/>
<path d="M60.8551 98.2028C60.8551 98.2028 73.6985 104.313 85.3397 94.1021C85.3397 94.1021 72.512 86.4326 60.8551 98.2028Z" fill="white"/>
<path d="M75.3325 86.8042C75.3325 86.8042 87.7332 93.7744 100.04 84.3767C100.04 84.3767 87.7629 75.8557 75.3325 86.8042Z" fill="white"/>
<path d="M169.556 60.5077C169.66 60.6811 169.731 60.8783 169.754 61.0957C169.847 61.9007 169.271 62.6307 168.467 62.7222C147.788 65.085 124.507 75.603 124.276 75.7109C123.537 76.0463 122.665 75.7246 122.332 74.982C121.995 74.2413 122.317 73.3723 123.057 73.0369C123.295 72.9284 146.985 62.2217 168.132 59.8057C168.724 59.7383 169.271 60.0316 169.56 60.514L169.556 60.5077Z" fill="white"/>
<path d="M171.734 75.6323C171.968 76.0233 172.018 76.5202 171.825 76.9695C171.505 77.7132 170.643 78.0578 169.898 77.7332C150.774 69.4681 125.335 66.9681 125.08 66.9411C124.272 66.8632 123.678 66.1485 123.755 65.3407C123.831 64.5328 124.546 63.9423 125.351 64.017C125.61 64.0421 151.501 66.584 171.057 75.0358C171.351 75.1636 171.581 75.3769 171.734 75.6323Z" fill="white"/>
</g>
<defs>
<clipPath id="clip0_18_309">
<rect width="86.0791" height="155.4" fill="white" transform="translate(44.1978 153.657) rotate(-120.894)"/>
</clipPath>
</defs>
</svg>
