<svg width="262" height="348" viewBox="0 0 262 348" fill="none" xmlns="http://www.w3.org/2000/svg">
<g clip-path="url(#clip0_24_1067)">
<path d="M101.579 0.764141C101.579 0.764141 88.0227 35.4964 115.826 55.922C115.826 55.922 130.684 25.7064 101.586 0.766485L101.579 0.764141Z" fill="white"/>
<path d="M228.347 55.8462C228.347 55.8462 199.322 79.2524 213.303 110.787C213.303 110.787 241.21 91.9471 228.347 55.8462Z" fill="white"/>
<path d="M139.345 33.598C139.345 33.598 115.916 49.3895 121.588 79.6688C121.588 79.6688 147.661 65.4832 139.345 33.598Z" fill="white"/>
<path d="M244.216 104.86C244.216 104.86 215.971 105.669 204.568 134.283C204.568 134.283 234.191 136.246 244.216 104.86Z" fill="white"/>
<path d="M227.949 138.388C227.949 138.388 199.847 135.462 184.771 162.323C184.771 162.323 213.874 168.176 227.949 138.388Z" fill="white"/>
<path d="M211.917 172.403C211.917 172.403 185.073 163.588 164.648 186.646C164.648 186.646 191.851 198.533 211.917 172.403Z" fill="white"/>
<path d="M186.85 198.878C186.85 198.878 160.601 188.424 138.787 210.171C138.787 210.171 165.204 223.717 186.85 198.878Z" fill="white"/>
<path d="M159.521 227.004C159.521 227.004 135.057 212.857 110.331 231.22C110.331 231.22 134.506 248.443 159.521 227.004Z" fill="white"/>
<path d="M91.1208 41.5083C91.1208 41.5083 88.6633 69.6611 115.768 84.2882C115.768 84.2882 121.138 55.0899 91.1208 41.5083Z" fill="white"/>
<path d="M198.201 85.6662C198.201 85.6662 181.041 108.114 196.094 134.99C196.094 134.99 216.268 113.218 198.201 85.6662Z" fill="white"/>
<path d="M181.33 114.005C181.33 114.005 162.045 134.653 174.374 162.885C174.374 162.885 196.596 143.203 181.33 114.005Z" fill="white"/>
<path d="M159.647 140.133C159.647 140.133 140.362 160.782 152.691 189.013C152.691 189.013 174.914 169.331 159.647 140.133Z" fill="white"/>
<path d="M139.895 163.134C139.895 163.134 118.129 181.154 126.759 210.727C126.759 210.727 151.314 194.047 139.895 163.134Z" fill="white"/>
<path d="M113.907 180.338C113.907 180.338 92.1404 198.357 100.771 227.93C100.771 227.93 125.326 211.25 113.907 180.338Z" fill="white"/>
<path d="M91.0977 74.7236C91.0977 74.7236 86.9227 102.671 113.082 118.926C113.082 118.926 120.224 90.1136 91.0977 74.7236Z" fill="white"/>
<path d="M87.304 105.974C87.304 105.974 80.8661 133.485 105.617 151.827C105.617 151.827 115.084 123.696 87.304 105.974Z" fill="white"/>
<path d="M81.6996 135.478C81.6996 135.478 71.8509 161.963 94.1011 183.27C94.1011 183.27 107.033 156.552 81.6996 135.478Z" fill="white"/>
<path d="M70.6598 162.568C70.6598 162.568 60.8111 189.052 83.0613 210.359C83.0613 210.359 95.9932 183.642 70.6598 162.568Z" fill="white"/>
<path d="M142.808 71.409C142.808 71.409 117.658 84.2823 119.661 115.019C119.661 115.019 147.245 104.058 142.808 71.409Z" fill="white"/>
<path d="M145.38 105.466C145.38 105.466 118.084 112.767 113.584 143.238C113.584 143.238 142.861 138.32 145.38 105.466Z" fill="white"/>
<path d="M138.113 141.392C138.113 141.392 110.382 146.819 103.828 176.918C103.828 176.918 133.366 173.999 138.113 141.392Z" fill="white"/>
<path d="M29.2687 302.677C28.8888 302.549 28.5277 302.341 28.2133 302.042C27.0381 300.942 26.9719 299.094 28.0716 297.919C56.3394 267.685 78.0662 221.744 78.2762 221.284C78.9646 219.823 80.6981 219.186 82.1569 219.881C83.618 220.57 84.2477 222.301 83.5594 223.762C83.3377 224.234 61.2352 270.987 32.327 301.905C31.5173 302.77 30.3118 303.031 29.2549 302.673L29.2687 302.677Z" fill="white"/>
<path d="M6.53206 282.576C5.67549 282.286 4.96177 281.597 4.67609 280.668C4.20451 279.129 5.06677 277.496 6.61252 277.027C46.1859 264.895 87.9095 235.891 88.3309 235.603C89.653 234.68 91.4714 234.997 92.394 236.319C93.3165 237.641 92.9931 239.457 91.6779 240.382C91.2541 240.677 48.7918 270.201 8.32428 282.607C7.71429 282.793 7.0916 282.766 6.53206 282.576Z" fill="white"/>
</g>
<defs>
<clipPath id="clip0_24_1067">
<rect width="170.905" height="309.138" fill="white" transform="translate(99.3269) rotate(18.7417)"/>
</clipPath>
</defs>
</svg>
