<svg width="172" height="171" viewBox="0 0 172 171" fill="none" xmlns="http://www.w3.org/2000/svg">
<g clip-path="url(#clip0_14_285)">
<path d="M111.817 0.855269C111.817 0.855269 97.8544 13.3579 105.714 28.8515C105.714 28.8515 119.238 18.6723 111.82 0.857893L111.817 0.855269Z" fill="white"/>
<path d="M156.277 54.4231C156.277 54.4231 137.933 58.3226 137.065 75.6567C137.065 75.6567 153.872 73.552 156.277 54.4231Z" fill="white"/>
<path d="M121.339 24.1851C121.339 24.1851 107.235 25.9405 102.919 40.8202C102.919 40.8202 117.847 40.3872 121.339 24.1851Z" fill="white"/>
<path d="M152.295 80.0313C152.295 80.0313 139.424 73.9669 127.815 84.2138C127.815 84.2138 140.677 91.8355 152.295 80.0313Z" fill="white"/>
<path d="M137.388 91.3763C137.388 91.3763 125.427 83.6685 112.566 92.2924C112.566 92.2924 124.313 101.542 137.388 91.3763Z" fill="white"/>
<path d="M122.475 102.994C122.475 102.994 112.415 92.9294 98.0129 98.6294C98.0129 98.6294 107.538 110.155 122.475 102.994Z" fill="white"/>
<path d="M105.214 109.171C105.214 109.171 95.7922 98.5062 81.0634 103.302C81.0634 103.302 89.8594 115.393 105.214 109.171Z" fill="white"/>
<path d="M86.5613 115.575C86.5613 115.575 78.7787 103.659 63.509 106.273C63.509 106.273 70.4648 119.504 86.5613 115.575Z" fill="white"/>
<path d="M97.8833 16.761C97.8833 16.761 90.3977 28.8364 99.2579 41.569C99.2579 41.569 108.289 29.687 97.8833 16.761Z" fill="white"/>
<path d="M135.976 60.9459C135.976 60.9459 123.178 67.1152 123.848 82.6025C123.848 82.6025 137.846 77.4224 135.976 60.9459Z" fill="white"/>
<path d="M121.973 69.8247C121.973 69.8247 108.629 74.7032 107.768 90.1789C107.768 90.1789 122.212 86.4027 121.973 69.8247Z" fill="white"/>
<path d="M106.31 76.6165C106.31 76.6165 92.9664 81.4949 92.1049 96.9706C92.1049 96.9706 106.549 93.1944 106.31 76.6165Z" fill="white"/>
<path d="M92.2232 82.4446C92.2232 82.4446 78.3608 85.5783 75.5341 100.814C75.5341 100.814 90.3457 98.9162 92.2232 82.4446Z" fill="white"/>
<path d="M76.6495 84.2512C76.6495 84.2512 62.787 87.385 59.9603 102.621C59.9603 102.621 74.772 100.723 76.6495 84.2512Z" fill="white"/>
<path d="M90.3438 31.6624C90.3438 31.6624 82.1332 43.2548 90.1997 56.5029C90.1997 56.5029 99.939 45.1972 90.3438 31.6624Z" fill="white"/>
<path d="M81.5557 44.824C81.5557 44.824 72.4275 55.7055 79.3879 69.5697C79.3879 69.5697 90.0178 59.0991 81.5557 44.824Z" fill="white"/>
<path d="M72.3502 56.7897C72.3502 56.7897 61.9225 66.4345 67.0878 81.0602C67.0878 81.0602 78.9532 72.0126 72.3502 56.7897Z" fill="white"/>
<path d="M61.2504 66.435C61.2504 66.435 50.8227 76.0798 55.9879 90.7054C55.9879 90.7054 67.8533 81.6578 61.2504 66.435Z" fill="white"/>
<path d="M114.324 41.9421C114.324 41.9421 100.108 41.9962 94.0408 56.2467C94.0408 56.2467 108.916 57.604 114.324 41.9421Z" fill="white"/>
<path d="M107.759 57.812C107.759 57.812 93.8428 54.8767 84.914 67.528C84.914 67.528 99.1803 71.983 107.759 57.812Z" fill="white"/>
<path d="M96.351 72.2816C96.351 72.2816 82.6636 68.4066 72.897 80.4232C72.897 80.4232 86.8276 85.8349 96.351 72.2816Z" fill="white"/>
<path d="M10.8967 119.895C10.7553 119.751 10.6401 119.576 10.5667 119.37C10.288 118.609 10.6772 117.765 11.4376 117.488C30.9892 110.352 51.1631 94.678 51.3618 94.5193C52.0022 94.0202 52.9252 94.1289 53.423 94.7729C53.9233 95.4143 53.8137 96.3345 53.1733 96.8336C52.9668 96.9949 32.44 112.948 12.4457 120.245C11.8858 120.449 11.2851 120.292 10.8916 119.89L10.8967 119.895Z" fill="white"/>
<path d="M5.23979 105.7C4.92089 105.375 4.75645 104.904 4.83867 104.422C4.97566 103.624 5.7332 103.087 6.53394 103.228C27.0608 106.789 52.3782 103.267 52.6329 103.234C53.4359 103.12 54.181 103.676 54.2957 104.48C54.4104 105.283 53.8535 106.024 53.053 106.14C52.7957 106.176 27.0288 109.763 6.038 106.122C5.72185 106.067 5.44811 105.913 5.23979 105.7Z" fill="white"/>
</g>
<defs>
<clipPath id="clip0_14_285">
<rect width="86.0791" height="155.4" fill="white" transform="translate(110.979) rotate(45.5736)"/>
</clipPath>
</defs>
</svg>
