<svg width="262" height="348" viewBox="0 0 262 348" fill="none" xmlns="http://www.w3.org/2000/svg">
<g clip-path="url(#clip0_24_1091)">
<path d="M159.592 0.764141C159.592 0.764141 173.148 35.4964 145.345 55.922C145.345 55.922 130.487 25.7064 159.585 0.766485L159.592 0.764141Z" fill="white"/>
<path d="M32.8238 55.8462C32.8238 55.8462 61.8486 79.2524 47.8675 110.787C47.8675 110.787 19.9606 91.9471 32.8238 55.8462Z" fill="white"/>
<path d="M121.825 33.598C121.825 33.598 145.254 49.3895 139.583 79.6688C139.583 79.6688 113.509 65.4832 121.825 33.598Z" fill="white"/>
<path d="M16.9548 104.86C16.9548 104.86 45.1989 105.669 56.6023 134.283C56.6023 134.283 26.9798 136.246 16.9548 104.86Z" fill="white"/>
<path d="M33.2219 138.388C33.2219 138.388 61.3237 135.462 76.3994 162.323C76.3994 162.323 47.2959 168.176 33.2219 138.388Z" fill="white"/>
<path d="M49.2539 172.403C49.2539 172.403 76.0969 163.588 96.5225 186.646C96.5225 186.646 69.3198 198.533 49.2539 172.403Z" fill="white"/>
<path d="M74.3206 198.878C74.3206 198.878 100.569 188.424 122.383 210.171C122.383 210.171 95.9667 223.717 74.3206 198.878Z" fill="white"/>
<path d="M101.65 227.004C101.65 227.004 126.114 212.857 150.839 231.22C150.839 231.22 126.664 248.443 101.65 227.004Z" fill="white"/>
<path d="M170.05 41.5083C170.05 41.5083 172.507 69.6611 145.402 84.2882C145.402 84.2882 140.032 55.0899 170.05 41.5083Z" fill="white"/>
<path d="M62.9694 85.6662C62.9694 85.6662 80.1299 108.114 65.0766 134.99C65.0766 134.99 44.9025 113.218 62.9694 85.6662Z" fill="white"/>
<path d="M79.8408 114.005C79.8408 114.005 99.1254 134.653 86.7968 162.885C86.7968 162.885 64.5739 143.203 79.8408 114.005Z" fill="white"/>
<path d="M101.524 140.133C101.524 140.133 120.808 160.782 108.48 189.013C108.48 189.013 86.2568 169.331 101.524 140.133Z" fill="white"/>
<path d="M121.275 163.134C121.275 163.134 143.042 181.154 134.411 210.727C134.411 210.727 109.856 194.047 121.275 163.134Z" fill="white"/>
<path d="M147.264 180.338C147.264 180.338 169.03 198.357 160.399 227.93C160.399 227.93 135.844 211.25 147.264 180.338Z" fill="white"/>
<path d="M170.073 74.7236C170.073 74.7236 174.248 102.671 148.088 118.926C148.088 118.926 140.947 90.1136 170.073 74.7236Z" fill="white"/>
<path d="M173.866 105.974C173.866 105.974 180.304 133.485 155.554 151.827C155.554 151.827 146.086 123.696 173.866 105.974Z" fill="white"/>
<path d="M179.471 135.478C179.471 135.478 189.32 161.963 167.069 183.27C167.069 183.27 154.137 156.552 179.471 135.478Z" fill="white"/>
<path d="M190.511 162.568C190.511 162.568 200.359 189.052 178.109 210.359C178.109 210.359 165.177 183.642 190.511 162.568Z" fill="white"/>
<path d="M118.362 71.409C118.362 71.409 143.513 84.2823 141.509 115.019C141.509 115.019 113.926 104.058 118.362 71.409Z" fill="white"/>
<path d="M115.79 105.466C115.79 105.466 143.086 112.767 147.586 143.238C147.586 143.238 118.31 138.32 115.79 105.466Z" fill="white"/>
<path d="M123.057 141.392C123.057 141.392 150.789 146.819 157.342 176.918C157.342 176.918 127.804 173.999 123.057 141.392Z" fill="white"/>
<path d="M231.902 302.677C232.282 302.549 232.643 302.341 232.957 302.042C234.132 300.942 234.199 299.094 233.099 297.919C204.831 267.685 183.104 221.744 182.894 221.284C182.206 219.823 180.472 219.186 179.014 219.881C177.552 220.57 176.923 222.301 177.611 223.762C177.833 224.234 199.935 270.987 228.843 301.905C229.653 302.77 230.859 303.031 231.916 302.673L231.902 302.677Z" fill="white"/>
<path d="M254.638 282.576C255.495 282.286 256.209 281.597 256.494 280.668C256.966 279.129 256.104 277.496 254.558 277.027C214.985 264.895 173.261 235.891 172.839 235.603C171.517 234.68 169.699 234.997 168.776 236.319C167.854 237.641 168.177 239.457 169.493 240.382C169.916 240.677 212.379 270.201 252.846 282.607C253.456 282.793 254.079 282.766 254.638 282.576Z" fill="white"/>
</g>
<defs>
<clipPath id="clip0_24_1091">
<rect width="170.905" height="309.138" fill="white" transform="matrix(-0.946977 0.321302 0.321302 0.946977 161.844 0)"/>
</clipPath>
</defs>
</svg>
