<svg width="128" height="100" viewBox="0 0 128 100" fill="none" xmlns="http://www.w3.org/2000/svg">
<g clip-path="url(#clip0_18_346)">
<path d="M1.4899 0.559805C1.4899 0.559805 -17.1401 100.11 103.49 82.4498C103.49 82.4498 114.77 47.1398 34.3499 33.8998C34.3499 33.8998 110.36 21.6398 118.7 98.6298H126.55C126.55 98.6298 126.06 79.4998 116.74 64.2998C116.74 64.2998 138.81 3.9798 56.4199 5.4498C56.4199 5.4498 44.1599 6.4298 1.4999 0.549805L1.4899 0.559805Z" fill="white"/>
<path d="M127.06 99.14H118.25L118.2 98.69C115.75 76.05 107.16 58.97 92.6799 47.93C72.8499 32.8 47.1899 33.26 37.9399 34.02C61.2599 38.2 89.7199 46.8 100.47 64.37C106.53 74.27 104.08 82.28 103.97 82.62L103.87 82.92L103.56 82.97C63.9199 88.77 35.0599 82.58 17.7599 64.58C-6.03011 39.8 0.929894 0.86 0.999894 0.47L1.08989 0L1.55989 0.07C43.6299 5.87 56.2499 4.98 56.3699 4.97C84.4599 4.47 103.52 11.03 113.1 24.47C124.67 40.72 118.1 61.81 117.28 64.25C126.44 79.36 127.03 98.43 127.04 98.62V99.13L127.06 99.14ZM119.15 98.14H126.03C125.87 95 124.61 78.11 116.32 64.57L116.19 64.36L116.27 64.13C116.35 63.91 124.23 41.78 112.29 25.03C102.91 11.88 84.1099 5.47 56.4299 5.95C56.3399 5.95 43.7599 6.86 1.90989 1.11C1.19989 5.59 -3.54011 40.94 18.4899 63.86C35.5099 81.56 63.9699 87.67 103.1 82C103.47 80.48 104.8 73.31 99.5999 64.84C93.4599 54.84 77.1499 41.45 34.2699 34.39L31.2399 33.89L34.2699 33.4C34.6099 33.35 68.4199 28.16 93.2799 47.12C107.9 58.27 116.6 75.43 119.14 98.13L119.15 98.14Z" fill="white"/>
</g>
<defs>
<clipPath id="clip0_18_346">
<rect width="127.06" height="99.14" fill="white"/>
</clipPath>
</defs>
</svg>
