<svg width="177" height="137" viewBox="0 0 177 137" fill="none" xmlns="http://www.w3.org/2000/svg">
<g clip-path="url(#clip0_18_343)">
<path d="M152.965 18.9439L145.804 14.0813C145.804 14.0813 115.485 62.8017 76.2944 80.6454C76.2944 80.6454 110.462 55.834 123.498 28.1491C123.498 28.1491 79.4333 -0.431346 48.3385 49.4729C17.2437 99.3771 20.057 108.231 20.057 108.231C20.057 108.231 62.2251 129.501 103.371 111.533C162.597 85.6659 133.664 41.6779 133.664 41.6779L152.965 18.9439Z" fill="white"/>
<path d="M79.9734 21.7463C81.3254 21.312 82.6987 20.9442 84.0999 20.6306C105.254 15.9238 123.609 27.6093 123.784 27.7314L124.155 27.9694L123.967 28.3658C117.198 42.7353 104.679 56.3054 95.368 65.1477C89.4467 70.7789 84.0282 75.2613 80.5543 78.0161C117.007 58.9408 145.094 14.2884 145.383 13.8172L145.66 13.3711L153.709 18.8411L134.277 41.7223C135.766 44.1641 144.826 60.1381 139.61 77.7058C135.415 91.847 123.288 103.369 103.578 111.981C62.683 129.848 20.2555 108.881 19.8308 108.671L19.6421 108.574L19.5779 108.374C19.4586 108.003 17.0452 98.7264 47.9145 49.1992C56.8009 34.9477 67.5681 25.7322 79.9734 21.7463ZM122.864 28.3317C120.184 26.7245 103.392 17.352 84.298 21.6067C70.4287 24.6976 58.4698 34.1594 48.7689 49.7335C32.9787 75.0577 26.1517 89.5404 23.1999 97.2215C20.4627 104.361 20.4416 107.172 20.5065 107.897C23.9074 109.525 64.2615 128.059 103.17 111.072C122.598 102.593 134.539 91.2778 138.645 77.4487C144.163 58.8912 133.346 42.1264 133.241 41.9608L133.035 41.6487L152.23 19.0432L145.955 14.7785C142.799 19.6997 113.403 64.3 76.5014 81.0934L71.9916 83.1411L76.0017 80.2246C76.0877 80.1654 84.6373 73.9208 94.6741 64.3938C103.832 55.6953 116.114 42.4009 122.851 28.3253L122.864 28.3317Z" fill="white"/>
</g>
<defs>
<clipPath id="clip0_18_343">
<rect width="155.09" height="93.55" fill="white" transform="translate(176.273 89.0655) rotate(162.188)"/>
</clipPath>
</defs>
</svg>
