<svg width="158" height="114" viewBox="0 0 158 114" fill="none" xmlns="http://www.w3.org/2000/svg">
<g clip-path="url(#clip0_18_336)">
<path d="M100.93 62.6825C100.93 62.6825 68.33 8.77618 156.7 3.73682C156.7 3.73682 150.18 81.6442 110.23 67.4229C110.23 67.4229 110.63 44.34 130.28 22.6238C130.28 22.6238 105.94 36.8771 100.94 62.6825H100.93Z" fill="white"/>
<path d="M119.56 69.6863C116.53 69.6863 113.36 69.0991 110.07 67.9353L109.72 67.8072V67.4122C109.73 67.188 110.3 45.9415 127.36 25.2075C120.64 30.0653 105.24 43.0908 101.42 62.7892L101.17 64.0704L100.51 62.9707C100.4 62.7892 89.63 44.6389 97.38 28.4211C104.51 13.5166 124.45 5.03931 156.67 3.20293L157.25 3.1709L157.2 3.77947C157.16 4.24924 153.01 51.205 132.56 65.5011C128.58 68.2877 124.23 69.6756 119.56 69.6756V69.6863ZM110.75 67.0492C118.67 69.7717 125.83 68.9603 132.02 64.6256C142.47 57.3228 148.49 41.169 151.7 28.9123C154.74 17.3068 155.9 6.90772 156.16 4.3133C124.67 6.19238 105.21 14.4668 98.3 28.9123C91.91 42.2687 98.57 57.0665 100.74 61.2518C106.29 36.3325 129.81 22.3034 130.06 22.1646L132.95 20.467L130.66 22.9974C112.77 42.7598 110.94 63.9209 110.77 67.0492H110.75Z" fill="white"/>
<path d="M0.719971 0.672852C0.719971 0.672852 135.66 25.2505 73.04 109.276C73.04 109.276 73.64 60.9745 35.21 30.3219C35.21 30.3219 64.38 65.9177 60.22 112.393C60.22 112.393 10.67 124.757 7.42997 45.6428C7.42997 45.6428 8.85997 28.8698 0.729971 0.672852H0.719971Z" fill="white"/>
<path d="M53.15 113.599C46.87 113.599 37.41 112.158 28.72 105.133C15.43 94.3707 8.09001 74.3627 6.92001 45.6746C6.94001 45.4397 8.24001 28.592 0.25001 0.832777L0.0100098 0L0.81001 0.149473C1.53001 0.277592 73.43 13.8049 87.65 53.554C93.58 70.1348 88.8 88.9897 73.43 109.606L72.52 110.823L72.54 109.265C72.54 108.795 72.68 63.6754 38.17 33.4606C45.24 43.582 64.11 74.5763 60.71 112.436L60.68 112.82L60.33 112.905C60.26 112.927 57.45 113.599 53.16 113.599H53.15ZM1.43001 1.35593C9.22001 28.8376 7.92001 45.5251 7.91001 45.696C9.07001 73.9784 16.27 93.7088 29.31 104.268C42.4 114.87 57.29 112.446 59.74 111.944C63.64 66.43 35.11 31.0156 34.82 30.6633L31.71 26.8624L35.5 29.8839C69.9 57.3121 73.19 99.3247 73.5 107.77C87.95 87.9221 92.39 69.8145 86.71 53.9277C73.5 17.0079 9.37001 2.95743 1.43001 1.35593Z" fill="white"/>
</g>
<defs>
<clipPath id="clip0_18_336">
<rect width="157.25" height="113.599" fill="white"/>
</clipPath>
</defs>
</svg>
