<svg width="96" height="116" viewBox="0 0 96 116" fill="none" xmlns="http://www.w3.org/2000/svg">
<g clip-path="url(#clip0_18_333)">
<path d="M0.627786 102.851C0.627786 102.851 80.0757 129.399 79.285 28.6508C79.285 28.6508 51.6349 15.4101 31.6689 79.7366C31.6689 79.7366 30.243 16.126 94.2658 18.0367L95.1559 11.611C95.1559 11.611 79.4273 9.84102 65.9173 15.745C65.9173 15.745 19.0002 -9.16634 10.8625 58.4421C10.8625 58.4421 10.2753 68.5889 0.620727 102.842L0.627786 102.851Z" fill="white"/>
<path d="M95.6316 11.2515L94.6327 18.4631L94.2583 18.4529C75.4318 17.889 60.4643 22.9821 49.7775 33.582C35.1331 48.0971 32.6005 69.1537 32.1743 76.8117C38.2431 58.1971 48.5161 35.8768 64.1299 29.0712C72.928 25.2342 79.2127 28.1487 79.4788 28.2774L79.7133 28.3933L79.7191 28.6527C79.9763 61.7589 71.6325 84.6802 54.9236 96.7985C31.9241 113.46 0.810139 103.344 0.498553 103.242L0.123692 103.115L0.234334 102.738C9.75646 68.9593 10.4582 58.528 10.4637 58.4287C13.2391 35.3784 20.7748 20.5211 32.8723 14.2045C47.4977 6.57788 64.0316 14.3493 65.9377 15.2975C79.3558 9.51422 95.0465 11.1955 95.2033 11.2089L95.6212 11.2668L95.6316 11.2515ZM93.9154 17.6129L94.6955 11.9811C92.1048 11.7558 78.1242 10.8703 66.091 16.1196L65.9042 16.2022L65.7248 16.1106C65.5536 16.0201 48.3163 7.05835 33.2393 14.9311C21.402 21.1169 14.0187 35.7784 11.2734 58.4908C11.2632 58.5645 10.5823 68.9653 1.12608 102.57C4.716 103.659 33.1405 111.551 54.4165 96.1193C70.8478 84.196 79.0807 61.5931 78.8722 28.9192C77.6688 28.4438 71.9453 26.5414 64.4163 29.8367C55.5272 33.7278 42.7076 45.559 32.0613 79.8578L31.3081 82.2813L31.2502 79.7455C31.2478 79.4615 30.8293 51.1968 49.1819 32.999C59.9747 22.2969 75.0202 17.1229 93.9061 17.6199L93.9154 17.6129Z" fill="white"/>
</g>
<defs>
<clipPath id="clip0_18_333">
<rect width="105" height="82" fill="white" transform="translate(0 104.007) rotate(-82.1135)"/>
</clipPath>
</defs>
</svg>
