<svg width="216" height="123" viewBox="0 0 216 123" fill="none" xmlns="http://www.w3.org/2000/svg">
<g clip-path="url(#clip0_23_360)">
<path d="M80.578 109.034V108.951L80.4782 61.9637H76.7863V89.1836H73.5676V61.9637H57.7571V93.9898H54.5384V61.9637H39.4972L39.6034 93.9834L36.3847 93.993L36.2785 61.9637H32.0136L32.1102 108.992V109.04C32.107 109.066 31.975 112.031 33.6198 113.795C34.4374 114.674 35.5736 115.12 37.0928 115.152C40.1506 115.223 72.5344 115.223 75.5954 115.152C77.1114 115.12 78.2476 114.674 79.0684 113.795C80.7132 112.031 80.578 109.066 80.578 109.034ZM80.578 109.034V108.951L80.4782 61.9637H76.7863V89.1836H73.5676V61.9637H57.7571V93.9898H54.5384V61.9637H39.4972L39.6034 93.9834L36.3847 93.993L36.2785 61.9637H32.0136L32.1102 108.992V109.04C32.107 109.066 31.975 112.031 33.6198 113.795C34.4374 114.674 35.5736 115.12 37.0928 115.152C40.1506 115.223 72.5344 115.223 75.5954 115.152C77.1114 115.12 78.2476 114.674 79.0684 113.795C80.7132 112.031 80.578 109.066 80.578 109.034ZM86.6003 114.026V41.2792C86.0273 41.3658 85.4415 41.4075 84.846 41.4075C84.4695 41.4075 84.0929 41.3883 83.7227 41.3562C81.8365 44.7603 78.2476 46.9035 74.2693 46.9035C73.0976 46.9035 71.9614 46.7206 70.8799 46.3613C68.8038 48.4692 65.9842 49.6563 62.9811 49.6563C58.3623 49.6563 54.2487 46.7655 52.6168 42.5786C51.7671 42.7807 50.8916 42.8866 50 42.8866C47.3059 42.8866 44.7148 41.9016 42.7063 40.1787C40.9811 42.7326 38.0713 44.3336 34.8719 44.3336C32.2422 44.3336 29.7766 43.262 27.9967 41.369C27.3046 41.3177 26.6287 41.2118 25.9688 41.0578V114.026C25.9688 114.026 25.4313 122.759 33.6584 122.939C37.3632 123.019 75.2027 123.019 78.9107 122.939C87.1346 122.759 86.6003 114.026 86.6003 114.026ZM81.4471 115.958C80.0211 117.498 78.077 118.306 75.6662 118.361C74.0407 118.396 65.1924 118.415 56.3441 118.415C47.4958 118.415 38.6442 118.396 37.022 118.361C34.6112 118.306 32.6638 117.498 31.2411 115.958C28.8046 113.32 28.8689 109.457 28.8915 108.909L28.7659 47.2243L31.9847 47.2179L32.0072 58.7553H36.2688L36.2495 52.8358L39.4682 52.8262L39.4876 58.7553H80.4718L80.4492 47.2243L83.668 47.2179L83.7935 108.906C83.816 109.441 83.8869 113.317 81.4471 115.958ZM80.5748 108.951L80.4782 61.9637H76.7863V89.1836H73.5676V61.9637H57.7571V93.9898H54.5384V61.9637H39.4972L39.6034 93.9834L36.3847 93.993L36.2785 61.9637H32.0136L32.1102 108.992V109.04C32.107 109.066 31.975 112.031 33.6198 113.795C34.4374 114.674 35.5736 115.12 37.0928 115.152C40.1506 115.223 72.5344 115.223 75.5954 115.152C77.1114 115.12 78.2476 114.674 79.0684 113.795C80.7132 112.031 80.578 109.066 80.578 109.034V108.951H80.5748ZM80.578 109.034V108.951L80.4782 61.9637H76.7863V89.1836H73.5676V61.9637H57.7571V93.9898H54.5384V61.9637H39.4972L39.6034 93.9834L36.3847 93.993L36.2785 61.9637H32.0136L32.1102 108.992V109.04C32.107 109.066 31.975 112.031 33.6198 113.795C34.4374 114.674 35.5736 115.12 37.0928 115.152C40.1506 115.223 72.5344 115.223 75.5954 115.152C77.1114 115.12 78.2476 114.674 79.0684 113.795C80.7132 112.031 80.578 109.066 80.578 109.034Z" fill="#FFEABF"/>
<path d="M93.8134 29.2605C93.8134 34.1886 89.79 38.1991 84.846 38.1991C84.2473 38.1991 83.6615 38.1413 83.1047 38.0258L81.7979 37.7627L81.2957 38.9915C81.2217 39.1744 81.1412 39.3509 81.0511 39.5241C79.7701 42.0748 77.1693 43.695 74.2692 43.695C73.1555 43.695 72.0869 43.4608 71.102 43.002L69.9465 42.4662L69.1579 43.464C67.6547 45.3602 65.4048 46.4478 62.9811 46.4478C59.2699 46.4478 56.0222 43.8266 55.2593 40.2139L55.1145 39.5241L54.857 38.3146L53.0609 39.0685C52.5781 39.2707 52.0792 39.4215 51.5675 39.5241C51.0557 39.6268 50.531 39.6781 49.9999 39.6781C49.4688 39.6781 48.9603 39.6268 48.4549 39.5241C46.5269 39.1391 44.7791 38.0483 43.5946 36.4473L41.7567 33.9576L40.775 36.8901C40.4242 37.9296 39.8223 38.8279 39.0466 39.5241C37.9264 40.5316 36.4522 41.1251 34.8718 41.1251C33.2914 41.1251 31.8366 40.5508 30.7036 39.5241C30.459 39.3028 30.2304 39.0589 30.018 38.7958L29.5481 38.2087L28.7916 38.1959C23.2586 38.0868 18.7556 33.5084 18.7556 27.9868C18.7556 22.4651 23.352 17.7777 29.0009 17.7777C29.8925 17.7777 30.7776 17.89 31.6209 18.1146L33.005 18.4803L33.5329 17.152C35.2388 12.8496 39.3395 10.0711 43.9873 10.0711C46.0151 10.0711 48.0075 10.6166 49.7424 11.6497L50.8851 12.3298L51.7702 11.3384C54.6156 8.1493 58.7034 6.32373 62.9811 6.32373C70.838 6.32373 77.4107 12.4357 77.9418 20.2417L78.1156 22.8181L80.3559 21.5219C81.7142 20.7358 83.2656 20.3187 84.846 20.3187C89.79 20.3187 93.8134 24.3292 93.8134 29.2605Z" fill="#FFEABF"/>
<path d="M84.0414 16.5329C85.4582 16.5329 86.6067 15.388 86.6067 13.9758C86.6067 12.5635 85.4582 11.4187 84.0414 11.4187C82.6246 11.4187 81.4761 12.5635 81.4761 13.9758C81.4761 15.388 82.6246 16.5329 84.0414 16.5329Z" fill="#FFEABF"/>
<path d="M49.3692 6.52586C51.177 6.52586 52.6426 5.065 52.6426 3.26293C52.6426 1.46086 51.177 0 49.3692 0C47.5613 0 46.0957 1.46086 46.0957 3.26293C46.0957 5.065 47.5613 6.52586 49.3692 6.52586Z" fill="#FFEABF"/>
<path d="M17.1463 17.8098C18.9168 17.8098 20.3522 16.3791 20.3522 14.6143C20.3522 12.8494 18.9168 11.4187 17.1463 11.4187C15.3757 11.4187 13.9404 12.8494 13.9404 14.6143C13.9404 16.3791 15.3757 17.8098 17.1463 17.8098Z" fill="#FFEABF"/>
<path d="M23.0719 97.5221H8.85154C3.97193 97.5221 0 93.563 0 88.6991V58.1231C0 53.2592 3.97193 49.3 8.85154 49.3H23.0719V54.1126H8.85154C6.63382 54.1126 4.82811 55.9125 4.82811 58.1231V88.6991C4.82811 90.9096 6.63382 92.7095 8.85154 92.7095H23.0719V97.5221Z" fill="#FFEABF"/>
<path d="M119.338 51.1162V49.0885C119.338 46.9068 118.549 45.0266 116.972 43.4481C115.395 41.8696 113.506 41.0803 111.304 41.0803H95.1975V77.1747H111.304C113.48 77.1747 115.363 76.3822 116.953 74.7941C118.543 73.2091 119.338 71.3322 119.338 69.1634V67.1357C119.338 65.0181 118.669 63.1508 117.33 61.5402C115.991 59.9328 113.982 59.1275 111.304 59.1275C113.982 58.8131 115.991 57.9853 117.33 56.6442C118.669 55.3031 119.338 53.4615 119.338 51.1162ZM111.304 69.1634C111.304 70.2414 110.905 71.175 110.107 71.9675C109.308 72.7567 108.362 73.1514 107.268 73.1514H103.231V61.1199H107.268C109.959 61.1199 111.304 62.461 111.304 65.1432V69.1634ZM111.304 53.1118C111.304 54.1994 110.905 55.1427 110.107 55.9384C109.308 56.7341 108.362 57.1319 107.268 57.1319H103.231V45.1004H107.268C108.362 45.1004 109.308 45.4951 110.107 46.2779C110.905 47.0608 111.304 47.9976 111.304 49.0885V53.1118Z" fill="#FFEABF"/>
<path d="M149.665 56.4485C150.898 54.7866 151.513 53.0604 151.513 51.267V49.0885C151.513 46.9068 150.724 45.0266 149.147 43.4481C147.57 41.8696 145.68 41.0803 143.479 41.0803H127.372V77.1747H135.406V61.1199H139.442C140.537 61.1199 141.483 61.5146 142.281 62.3038C143.08 63.0931 143.479 64.0396 143.479 65.1432V77.1747H151.513V62.9615C151.513 61.8579 151.117 60.9114 150.325 60.1221C149.533 59.3328 148.584 58.9382 147.476 58.9382H143.479C146.372 58.9382 148.432 58.1072 149.665 56.4485ZM143.479 53.1118C143.479 54.1994 143.08 55.1427 142.281 55.9384C141.483 56.7341 140.537 57.1319 139.442 57.1319H135.406V45.1004H139.442C140.537 45.1004 141.483 45.4951 142.281 46.2779C143.08 47.0608 143.479 47.9976 143.479 49.0885V53.1118Z" fill="#FFEABF"/>
<path d="M175.653 41.0803V53.1118C175.653 54.1994 175.254 55.1427 174.456 55.9384C173.658 56.7341 172.711 57.1319 171.617 57.1319C170.523 57.1319 169.56 56.7341 168.768 55.9384C167.977 55.1427 167.581 54.1994 167.581 53.1118V41.0803H159.547V53.1118C159.547 57.8345 162.225 60.5039 167.581 61.1199V77.1747H175.653V61.1199C181.009 60.5039 183.687 57.8345 183.687 53.1118V41.0803H175.653Z" fill="#FFEABF"/>
<path d="M203.791 61.1199H207.828V69.1634C207.702 71.698 206.357 73.0263 203.791 73.1514C202.684 73.1514 201.735 72.7632 200.943 71.9835C200.151 71.2071 199.755 70.267 199.755 69.1634V49.0885C199.755 47.9976 200.151 47.0608 200.943 46.2779C201.735 45.4951 202.684 45.1004 203.791 45.1004H207.828C210.177 45.1004 211.51 46.4319 211.825 49.0885H215.862C215.559 43.7497 212.881 41.0803 207.828 41.0803H199.755C197.505 41.0803 195.603 41.876 194.052 43.4674C192.497 45.0587 191.721 46.9324 191.721 49.0885V69.1634C191.721 71.3579 192.51 73.2412 194.087 74.8133C195.667 76.3854 197.557 77.1747 199.755 77.1747H207.828C209.753 77.1747 211.571 76.5042 213.287 75.163C215.002 73.8219 215.862 71.8231 215.862 69.1634V57.1319H203.791V61.1199Z" fill="#FFEABF"/>
<path d="M127.51 123V86.9055H135.544V102.96H143.617V86.9055H151.651V123H143.617V106.945H135.544V123H127.51Z" fill="#FFEABF"/>
<path d="M167.719 123V106.945C162.363 106.332 159.685 103.663 159.685 98.937V86.9055H167.719V98.937C167.719 100.028 168.115 100.971 168.907 101.767C169.699 102.562 170.648 102.96 171.755 102.96C172.863 102.96 173.796 102.562 174.594 101.767C175.393 100.971 175.792 100.028 175.792 98.937V86.9055H183.826V98.937C183.826 103.663 181.148 106.332 175.792 106.945V123H167.719Z" fill="#FFEABF"/>
<path d="M203.93 102.96H216V114.992C216 117.648 215.141 119.647 213.425 120.988C211.71 122.329 209.888 123 207.966 123H199.894C197.692 123 195.803 122.214 194.225 120.642C192.648 119.07 191.86 117.186 191.86 114.992V94.9137C191.86 92.7576 192.635 90.8839 194.19 89.2926C195.741 87.7012 197.644 86.9055 199.894 86.9055H207.966C213.02 86.9055 215.698 89.5749 216 94.9137H211.964C211.648 92.2571 210.316 90.9288 207.966 90.9288H203.93C202.823 90.9288 201.873 91.3203 201.081 92.1031C200.289 92.886 199.894 93.8228 199.894 94.9137V114.992C199.894 116.095 200.289 117.036 201.081 117.812C201.873 118.588 202.823 118.977 203.93 118.977C206.495 118.851 207.841 117.523 207.966 114.992V106.945H203.93V102.96Z" fill="#FFEABF"/>
<path d="M118.508 89.9569H120.426V91.8851C120.426 92.9792 120.059 93.8904 119.322 94.6251C118.585 95.3598 117.729 95.7256 116.747 95.7256H116.576V97.6538C116.576 98.5008 116.206 99.351 115.463 100.208C114.722 101.064 113.808 101.491 112.723 101.491H108.855C107.77 101.491 106.856 101.064 106.115 100.208C105.375 99.351 105.002 98.5008 105.002 97.6538V95.7256C105.002 94.8593 105.32 94.0059 105.961 93.1588C106.598 92.3118 107.564 91.8883 108.855 91.8883C106.286 91.5867 105.005 90.3034 105.005 88.0318C105.005 86.9859 105.382 86.0844 106.138 85.3272C106.894 84.57 107.799 84.1914 108.855 84.1914H112.723C113.779 84.1914 114.684 84.57 115.44 85.3272C116.196 86.0844 116.576 86.9859 116.576 88.0318V89.9601H112.723V88.0318C112.723 87.496 112.534 87.0437 112.151 86.6747C111.767 86.3057 111.314 86.1197 110.789 86.1197C110.264 86.1197 109.804 86.3057 109.424 86.6747C109.044 87.0437 108.855 87.496 108.855 88.0318V89.004C108.855 90.1269 109.498 90.7654 110.789 90.9162V92.8444C109.498 93.0049 108.855 93.6497 108.855 94.7727V97.657C108.855 98.2955 109.044 98.7703 109.424 99.0912C109.804 99.4088 110.258 99.5692 110.789 99.5692C111.32 99.5692 111.767 99.4088 112.151 99.0912C112.534 98.7735 112.723 98.2955 112.723 97.657V93.8005H116.576C117.114 93.8005 117.568 93.6144 117.944 93.2423C118.321 92.8701 118.511 92.4177 118.511 91.8915V89.9633L118.508 89.9569Z" fill="#FFEABF"/>
</g>
<defs>
<clipPath id="clip0_23_360">
<rect width="216" height="123" fill="white"/>
</clipPath>
</defs>
</svg>
