<svg width="323" height="468" viewBox="0 0 323 468" fill="none" xmlns="http://www.w3.org/2000/svg">
<g clip-path="url(#clip0_24_1063)">
<path d="M318.008 190.015C312.228 152.354 284.495 153.191 284.495 153.191H246.86C236.105 153.191 233.658 142.023 233.658 142.023V135.305C228.962 137.966 223.593 139.395 218.01 139.395C206.138 139.395 195.449 132.858 189.948 122.691C182.822 129.902 172.986 134.09 162.723 134.09C158.865 134.09 155.121 133.531 151.508 132.414C146.566 147.985 131.886 158.924 115.286 158.924C104.448 158.924 94.3336 154.39 87.1416 146.425C82.9709 148.018 78.5867 148.823 74.0219 148.823C65.9104 148.823 58.275 146.211 52.0682 141.612C52.0518 194.548 52.0354 369.732 52.0682 382.297C52.0682 397.112 51.28 405.636 45.9271 422.997C38.5052 444.004 36.699 449.112 36.699 449.112C36.699 449.112 33.4314 464.847 91.9527 467.54C126.413 467.945 160.085 467.945 192.969 467.54C251.49 464.567 249.011 449.112 249.011 449.112C249.011 449.112 247.205 444.004 239.799 422.997C239.208 421.108 238.683 419.318 238.207 417.626C239.093 401.875 254.43 397.243 254.43 397.243C285.135 385.237 314.576 370.931 318.008 359.286C325.463 334.042 323.805 227.677 318.008 190.015ZM289.47 347.691C280.784 357.217 261.753 362.998 249.027 370.455C236.302 377.895 233.675 362.998 233.675 362.998V191.888C242.492 181.557 247.139 181.737 247.139 181.737L265.053 178.715C275.94 177.779 285.513 181.409 289.47 194.565C301.046 233.064 298.156 338.181 289.47 347.691Z" fill="#CB7F1C"/>
<path d="M279.503 82.0404C279.503 103.704 261.917 121.656 240.275 122.083L238.732 122.116L237.78 123.315C236.548 124.859 235.169 126.222 233.658 127.421C229.241 130.903 223.773 132.825 218.01 132.825C207.632 132.825 198.404 126.551 194.545 117.057C194.332 116.565 194.151 116.056 193.971 115.53L191.968 109.519L188.207 114.627C187.748 115.251 187.271 115.842 186.779 116.417C180.818 123.397 171.968 127.52 162.723 127.52C158.47 127.52 154.365 126.699 150.523 125.089L146.861 123.545L146.04 127.438C142.986 141.875 130.064 152.354 115.286 152.354C105.631 152.354 96.6488 148.001 90.6554 140.413L89.0463 138.376L86.6982 139.477C82.7409 141.316 78.4717 142.253 74.0219 142.253C65.5327 142.253 57.6674 138.771 52.0682 132.874C49.5066 130.181 47.4213 126.978 45.9435 123.397L44.909 120.884L42.2489 121.426C40.0322 121.87 37.717 122.1 35.3689 122.1C15.8618 122.1 0 106.217 0 86.7214C0 67.2255 15.8618 51.3266 35.3689 51.3266C41.5921 51.3266 47.7168 52.9855 53.0862 56.0897L57.651 58.7505L58.0123 53.4782C60.0483 23.487 85.2039 0 115.286 0C131.656 0 147.288 7.01326 158.191 19.2659L159.998 21.2862L162.329 19.9065C169.078 15.8661 176.812 13.7473 184.693 13.7473C202.756 13.7473 218.699 24.5875 225.317 41.3569L226.4 44.0834L229.225 43.3279C232.525 42.4574 235.973 41.9975 239.471 41.9975C261.54 41.9975 279.503 59.9659 279.503 82.0404Z" fill="#CB7F1C"/>
</g>
<defs>
<clipPath id="clip0_24_1063">
<rect width="323" height="468" fill="white"/>
</clipPath>
</defs>
</svg>
